<svg xmlns="http://www.w3.org/2000/svg" xmlns:xlink="http://www.w3.org/1999/xlink" width="580" height="711.3"><rect width="580" height="711.3" rx="5" ry="5" class="a"/><svg y="0%" x="0%"><circle cx="20" cy="20" r="6" fill="#ff5f58"/><circle cx="40" cy="20" r="6" fill="#ffbd2e"/><circle cx="60" cy="20" r="6" fill="#18c132"/></svg><svg height="651.3" viewBox="0 0 50 65.13" width="500" x="35" xmlns="http://www.w3.org/2000/svg" xmlns:xlink="http://www.w3.org/1999/xlink" y="50"><style>.a{fill:#282d35}.h,.i,.j,.k,.l,.m{fill:#b9c0cb;white-space:pre}.i,.j,.k,.l,.m{fill:#d290e4}.j,.k,.l,.m{fill:#66c2cd}.k,.l,.m{fill:#dbab79}.l,.m{fill:#71bef2}.m{fill:#a8cc8c}</style><g font-family="Monaco,Consolas,Menlo,'Bitstream Vera Sans Mono','Powerline Symbols',monospace" font-size="1.67"><defs><symbol id="a"><path fill="transparent" d="M0 0h50v31H0z"/></symbol><symbol id="b"><path fill="#6f7683" d="M0 0h1.102v2.171H0z"/></symbol></defs><path class="a" d="M0 0h50v65.13H0z"/><svg width="50"><svg><use xlink:href="#a"/><use xlink:href="#b" x="-.004" y="62.934"/><text y="1.67" class="h">[root]</text><text x="7.014" y="1.67" class="h">root</text><text y="3.841" class="h">├──[</text><text x="4.008" y="3.841" class="i">output</text><text x="10.02" y="3.841" class="h">][output]</text><text x="20.04" y="3.841" class="h">HDMI-0</text><text y="6.012" class="h">│</text><text x="3.006" y="6.012" class="h">├──[</text><text x="7.014" y="6.012" class="j">workspace</text><text x="16.032" y="6.012" class="h">][</text><text x="18.036" y="6.012" class="k">splith</text><text x="24.048" y="6.012" class="h">]</text><text x="26.052" y="6.012" class="h">1</text><text y="8.183" class="h">│</text><text x="3.006" y="8.183" class="h">│</text><text x="6.012" y="8.183" class="h">└──[</text><text x="10.02" y="8.183" class="l">con</text><text x="13.026" y="8.183" class="h">]</text><text x="15.03" y="8.183" class="h">Reddit.com</text><text x="26.052" y="8.183" class="h">-</text><text x="28.056" y="8.183" class="h">Mozilla</text><text x="36.072" y="8.183" class="h">Firefox</text><text y="10.354" class="h">│</text><text x="3.006" y="10.354" class="h">├──[</text><text x="7.014" y="10.354" class="j">workspace</text><text x="16.032" y="10.354" class="h">][</text><text x="18.036" y="10.354" class="m">stacked</text><text x="25.05" y="10.354" class="h">]</text><text x="27.054" y="10.354" class="h">2</text><text y="12.525" class="h">│</text><text x="3.006" y="12.525" class="h">│</text><text x="6.012" y="12.525" class="h">├──[</text><text x="10.02" y="12.525" class="l">con</text><text x="13.026" y="12.525" class="h">]</text><text x="15.03" y="12.525" class="h">Twitter.com</text><text x="27.054" y="12.525" class="h">-</text><text x="29.058" y="12.525" class="h">Mozilla</text><text x="37.074" y="12.525" class="h">Firefox</text><text y="14.696" class="h">│</text><text x="3.006" y="14.696" class="h">│</text><text x="6.012" y="14.696" class="h">├──[</text><text x="10.02" y="14.696" class="l">con</text><text x="13.026" y="14.696" class="h">]</text><text x="15.03" y="14.696" class="h">Stackoverflow.com</text><text x="33.066" y="14.696" class="h">-</text><text x="35.07" y="14.696" class="h">Google</text><text x="42.084" y="14.696" class="h">Chrome</text><text y="16.867" class="h">│</text><text x="3.006" y="16.867" class="h">│</text><text x="6.012" y="16.867" class="h">└──[</text><text x="10.02" y="16.867" class="l">con</text><text x="13.026" y="16.867" class="h">]</text><text x="15.03" y="16.867" class="h">duckduckgo.com</text><text x="30.06" y="16.867" class="h">-</text><text x="32.064" y="16.867" class="h">Chromium</text><text y="19.038" class="h">│</text><text x="3.006" y="19.038" class="h">├──[</text><text x="7.014" y="19.038" class="j">workspace</text><text x="16.032" y="19.038" class="h">][</text><text x="18.036" y="19.038" class="k">splitv</text><text x="24.048" y="19.038" class="h">]</text><text x="26.052" y="19.038" class="h">3</text><text y="21.209" class="h">│</text><text x="3.006" y="21.209" class="h">│</text><text x="6.012" y="21.209" class="h">├──[</text><text x="10.02" y="21.209" class="l">con</text><text x="13.026" y="21.209" class="h">]</text><text x="15.03" y="21.209" class="h">Mozilla</text><text x="23.046" y="21.209" class="h">Firefox</text><text y="23.38" class="h">│</text><text x="3.006" y="23.38" class="h">│</text><text x="6.012" y="23.38" class="h">└──[</text><text x="10.02" y="23.38" class="l">con</text><text x="13.026" y="23.38" class="h">]</text><text x="15.03" y="23.38" class="h">VLC</text><text x="19.038" y="23.38" class="h">media</text><text x="25.05" y="23.38" class="h">player</text><text y="25.551" class="h">│</text><text x="3.006" y="25.551" class="h">├──[</text><text x="7.014" y="25.551" class="j">workspace</text><text x="16.032" y="25.551" class="h">][</text><text x="18.036" y="25.551" class="m">tabbed</text><text x="24.048" y="25.551" class="h">]</text><text x="26.052" y="25.551" class="h">4</text><text y="27.722" class="h">│</text><text x="3.006" y="27.722" class="h">│</text><text x="6.012" y="27.722" class="h">├──[</text><text x="10.02" y="27.722" class="l">con</text><text x="13.026" y="27.722" class="h">]</text><text x="15.03" y="27.722" class="h">kubernetes.io</text><text x="29.058" y="27.722" class="h">-</text><text x="31.062" y="27.722" class="h">Mozilla</text><text x="39.078" y="27.722" class="h">Firefox</text><text y="29.893" class="h">│</text><text x="3.006" y="29.893" class="h">│</text><text x="6.012" y="29.893" class="h">├──[</text><text x="10.02" y="29.893" class="l">con</text><text x="13.026" y="29.893" class="h">]</text><text x="15.03" y="29.893" class="h">VLC</text><text x="19.038" y="29.893" class="h">media</text><text x="25.05" y="29.893" class="h">player</text><text y="32.064" class="h">│</text><text x="3.006" y="32.064" class="h">│</text><text x="6.012" y="32.064" class="h">└──[</text><text x="10.02" y="32.064" class="l">con</text><text x="13.026" y="32.064" class="h">]</text><text x="15.03" y="32.064" class="h">Slack</text><text y="34.235" class="h">│</text><text x="3.006" y="34.235" class="h">└──[</text><text x="7.014" y="34.235" class="j">workspace</text><text x="16.032" y="34.235" class="h">][</text><text x="18.036" y="34.235" class="k">splith</text><text x="24.048" y="34.235" class="h">]</text><text x="26.052" y="34.235" class="h">5</text><text y="36.406" class="h">│</text><text x="6.012" y="36.406" class="h">├──[</text><text x="10.02" y="36.406" class="l">con</text><text x="13.026" y="36.406" class="h">][</text><text x="15.03" y="36.406" class="k">splitv</text><text x="21.042" y="36.406" class="h">]</text><text y="38.577" class="h">│</text><text x="6.012" y="38.577" class="h">│</text><text x="9.018" y="38.577" class="h">├──[</text><text x="13.026" y="38.577" class="l">con</text><text x="16.032" y="38.577" class="h">]</text><text x="18.036" y="38.577" class="h">/bin/bash</text><text y="40.748" class="h">│</text><text x="6.012" y="40.748" class="h">│</text><text x="9.018" y="40.748" class="h">└──[</text><text x="13.026" y="40.748" class="l">con</text><text x="16.032" y="40.748" class="h">]</text><text x="18.036" y="40.748" class="h">/bin/bash</text><text y="42.919" class="h">│</text><text x="6.012" y="42.919" class="h">└──[</text><text x="10.02" y="42.919" class="l">con</text><text x="13.026" y="42.919" class="h">][</text><text x="15.03" y="42.919" class="k">splitv</text><text x="21.042" y="42.919" class="h">]</text><text y="45.09" class="h">│</text><text x="9.018" y="45.09" class="h">├──[</text><text x="13.026" y="45.09" class="l">con</text><text x="16.032" y="45.09" class="h">]</text><text x="18.036" y="45.09" class="h">/bin/bash</text><text y="47.261" class="h">│</text><text x="9.018" y="47.261" class="h">└──[</text><text x="13.026" y="47.261" class="l">con</text><text x="16.032" y="47.261" class="h">]</text><text x="18.036" y="47.261" class="h">/bin/bash</text><text y="49.432" class="h">└──[</text><text x="4.008" y="49.432" class="i">output</text><text x="10.02" y="49.432" class="h">][output]</text><text x="20.04" y="49.432" class="h">HDMI-1</text><text x="3.006" y="51.603" class="h">└──[</text><text x="7.014" y="51.603" class="j">workspace</text><text x="16.032" y="51.603" class="h">][</text><text x="18.036" y="51.603" class="k">splith</text><text x="24.048" y="51.603" class="h">]</text><text x="26.052" y="51.603" class="h">6</text><text x="6.012" y="53.774" class="h">├──[</text><text x="10.02" y="53.774" class="l">con</text><text x="13.026" y="53.774" class="h">][</text><text x="15.03" y="53.774" class="k">splitv</text><text x="21.042" y="53.774" class="h">]</text><text x="6.012" y="55.945" class="h">│</text><text x="9.018" y="55.945" class="h">└──[</text><text x="13.026" y="55.945" class="l">con</text><text x="16.032" y="55.945" class="h">]</text><text x="18.036" y="55.945" class="h">VLC</text><text x="22.044" y="55.945" class="h">media</text><text x="28.056" y="55.945" class="h">player</text><text x="6.012" y="58.116" class="h">└──[</text><text x="10.02" y="58.116" class="l">con</text><text x="13.026" y="58.116" class="h">][</text><text x="15.03" y="58.116" class="k">splitv</text><text x="21.042" y="58.116" class="h">]</text><text x="9.018" y="60.287" class="h">├──[</text><text x="13.026" y="60.287" class="l">con</text><text x="16.032" y="60.287" class="h">]</text><text x="18.036" y="60.287" class="h">/bin/bash</text><text x="9.018" y="62.458" class="h">└──[</text><text x="13.026" y="62.458" class="l">con</text><text x="16.032" y="62.458" class="h">]</text><text x="18.036" y="62.458" class="h">/bin/bash</text></svg></svg></g></svg></svg>